Coordinates
version=1
nRows=24
nColumns=38
inDegrees=no

Units are S.I. units (second, meters, Newtons, ...)
If the header above contains a line with 'inDegrees', this indicates whether rotational values are in degrees (yes) or radians (no).

endheader
time	pelvis_tilt	pelvis_list	pelvis_rotation	pelvis_tx	pelvis_ty	pelvis_tz	hip_flexion_r	hip_adduction_r	hip_rotation_r	knee_angle_r	ankle_angle_r	subtalar_angle_r	mtp_angle_r	hip_flexion_l	hip_adduction_l	hip_rotation_l	knee_angle_l	ankle_angle_l	subtalar_angle_l	mtp_angle_l	lumbar_extension	lumbar_bending	lumbar_rotation	arm_flex_r	arm_add_r	arm_rot_r	elbow_flex_r	pro_sup_r	wrist_flex_r	wrist_dev_r	arm_flex_l	arm_add_l	arm_rot_l	elbow_flex_l	pro_sup_l	wrist_flex_l	wrist_dev_l
23.87	1.45598	1.42641	-0.0694027	0.736279	-0.438803	0.978649	0.158969	0.050664	-0.158456	0.419532	0.13515	0	0	0.0142128	-0.119467	-0.28427	0.0596951	0.0308342	0	0	-0.0704454	0.182173	0.00338898	0.40998	-0.242124	0.204531	1.47018	1.5708	0	0	0.256457	-0.238867	0.178601	1.5081	1.5708	0	0
23.88	1.44847	1.42443	-0.0617643	0.737399	-0.439209	0.978852	0.15854	0.0576555	-0.158077	0.404606	0.135297	0	0	0.0152981	-0.123055	-0.284501	0.0592244	0.0298024	0	0	-0.0716669	0.1851	0.00275313	0.408197	-0.244635	0.20289	1.47865	1.5708	0	0	0.250684	-0.243057	0.177348	1.51677	1.5708	0	0
23.89	1.4414	1.42268	-0.0537977	0.738495	-0.439605	0.979014	0.158225	0.0643103	-0.157506	0.390946	0.134283	0	0	0.0165657	-0.126385	-0.283849	0.0588267	0.028862	0	0	-0.0728025	0.187878	0.00123007	0.405869	-0.247953	0.203183	1.48919	1.5708	0	0	0.243517	-0.247813	0.178938	1.52495	1.5708	0	0
23.9	1.43617	1.42135	-0.0475599	0.739629	-0.439933	0.979157	0.15803	0.0701584	-0.156907	0.379209	0.132421	0	0	0.0174348	-0.129217	-0.283166	0.0582462	0.0277866	0	0	-0.0739646	0.190289	-0.000175008	0.402907	-0.251968	0.204754	1.50119	1.5708	0	0	0.235102	-0.25272	0.182445	1.53308	1.5708	0	0
23.91	1.43288	1.42063	-0.0432177	0.740818	-0.440157	0.97926	0.157704	0.075197	-0.155311	0.369111	0.130394	0	0	0.0178397	-0.131323	-0.282671	0.0575242	0.026738	0	0	-0.0751504	0.192036	-0.00166751	0.398956	-0.256431	0.207389	1.51459	1.5708	0	0	0.224621	-0.257266	0.183292	1.54359	1.5708	0	0
23.92	1.43122	1.42059	-0.0401707	0.742058	-0.440293	0.979319	0.157062	0.0793504	-0.153442	0.360044	0.12794	0	0	0.0181678	-0.132816	-0.282398	0.0572037	0.0260468	0	0	-0.0763878	0.19296	-0.00343428	0.392885	-0.261435	0.210058	1.53002	1.5708	0	0	0.212159	-0.261184	0.18063	1.55654	1.5708	0	0
23.93	1.43034	1.42129	-0.0376561	0.743347	-0.440337	0.979326	0.156252	0.0825303	-0.151781	0.35205	0.124681	0	0	0.0184781	-0.133611	-0.281997	0.0571201	0.0254289	0	0	-0.0774841	0.193012	-0.00516853	0.384275	-0.267187	0.212284	1.54766	1.5708	0	0	0.19803	-0.264812	0.176356	1.57067	1.5708	0	0
23.94	1.43006	1.42256	-0.0355724	0.744688	-0.440284	0.979282	0.155038	0.0850228	-0.15007	0.344298	0.120171	0	0	0.0187802	-0.133826	-0.281406	0.0572836	0.0248327	0	0	-0.0783749	0.192471	-0.00669314	0.373467	-0.273585	0.214076	1.56662	1.5708	0	0	0.182874	-0.26806	0.171745	1.58426	1.5708	0	0
23.95	1.43087	1.42439	-0.034409	0.746067	-0.440143	0.979181	0.153185	0.0869023	-0.148198	0.33637	0.114398	0	0	0.0190299	-0.133526	-0.280809	0.0578059	0.0243458	0	0	-0.0790857	0.191357	-0.00783534	0.360523	-0.280454	0.215592	1.58639	1.5708	0	0	0.167631	-0.270767	0.167816	1.59597	1.5708	0	0
23.96	1.43151	1.42682	-0.0330133	0.7475	-0.439894	0.979006	0.150666	0.0881804	-0.14569	0.327597	0.106874	0	0	0.0193158	-0.13275	-0.280513	0.0585953	0.0242622	0	0	-0.0794162	0.189651	-0.00858311	0.345443	-0.287657	0.217292	1.60609	1.5708	0	0	0.152116	-0.273344	0.165302	1.60567	1.5708	0	0
23.97	1.43158	1.42965	-0.0310971	0.748997	-0.439553	0.978764	0.14732	0.0890982	-0.142446	0.317451	0.0960268	0	0	0.0195062	-0.131605	-0.280205	0.0593014	0.0243143	0	0	-0.0792647	0.187561	-0.00898152	0.327989	-0.294667	0.218329	1.62543	1.5708	0	0	0.13613	-0.275778	0.164273	1.61364	1.5708	0	0
23.98	1.43179	1.43298	-0.0295498	0.750567	-0.439148	0.978477	0.143188	0.0895287	-0.138291	0.306519	0.0820849	0	0	0.0193826	-0.129977	-0.280166	0.0596882	0.0243387	0	0	-0.0789893	0.184938	-0.00865541	0.307859	-0.301562	0.217795	1.64499	1.5708	0	0	0.11995	-0.277801	0.16447	1.62005	1.5708	0	0
23.99	1.43402	1.43706	-0.0300771	0.752178	-0.438664	0.978142	0.138482	0.0887451	-0.135362	0.296218	0.0693483	0	0	0.0185806	-0.127458	-0.279956	0.0595148	0.0243326	0	0	-0.0788956	0.181534	-0.00792869	0.286155	-0.3079	0.217033	1.66306	1.5708	0	0	0.102089	-0.280243	0.164568	1.62581	1.5708	0	0
24	1.4389	1.44201	-0.0332638	0.753818	-0.438077	0.977757	0.133711	0.0861329	-0.135778	0.288442	0.0637943	0	0	0.0169988	-0.123863	-0.279336	0.0586958	0.0244659	0	0	-0.0790114	0.177289	-0.0071726	0.263173	-0.313425	0.216255	1.6789	1.5708	0	0	0.0812065	-0.283347	0.16254	1.6309	1.5708	0	0
24.01	1.44583	1.44741	-0.038858	0.755529	-0.437406	0.977359	0.128738	0.0825843	-0.136884	0.282794	0.0658102	0	0	0.0149028	-0.119736	-0.278848	0.0576986	0.0250379	0	0	-0.0791457	0.172675	-0.00583199	0.238477	-0.318554	0.215002	1.69304	1.5708	0	0	0.0612371	-0.28518	0.160571	1.63421	1.5708	0	0
24.02	1.45519	1.4527	-0.0472786	0.757338	-0.43668	0.976998	0.122951	0.0793093	-0.136056	0.277176	0.0716862	0	0	0.0123778	-0.115727	-0.278193	0.0566708	0.0255927	0	0	-0.0795417	0.168249	-0.00343336	0.211597	-0.322886	0.211673	1.70586	1.5708	0	0	0.0422544	-0.285608	0.158836	1.63619	1.5708	0	0
24.03	1.46854	1.45736	-0.0594362	0.759159	-0.435948	0.976712	0.116446	0.0765631	-0.135442	0.271063	0.076694	0	0	0.00976805	-0.112398	-0.276729	0.0562735	0.0262849	0	0	-0.0804018	0.164688	-0.000845718	0.183413	-0.326031	0.206156	1.71593	1.5708	0	0	0.0236111	-0.285132	0.15693	1.63696	1.5708	0	0
24.04	1.48464	1.46089	-0.0743392	0.76101	-0.435242	0.97655	0.109769	0.0747359	-0.136021	0.264564	0.078821	0	0	0.00736316	-0.110417	-0.275126	0.0568006	0.0276947	0	0	-0.0817441	0.162507	0.00198175	0.154396	-0.328011	0.198798	1.72278	1.5708	0	0	0.00481417	-0.283836	0.154518	1.63652	1.5708	0	0
24.05	1.50187	1.46283	-0.0906137	0.762888	-0.434581	0.976542	0.103425	0.0743836	-0.137315	0.258085	0.0780617	0	0	0.00530623	-0.110281	-0.273564	0.0582828	0.0294947	0	0	-0.0836966	0.16219	0.0058471	0.123986	-0.328768	0.188759	1.7278	1.5708	0	0	-0.0135654	-0.28149	0.152399	1.63425	1.5708	0	0
24.06	1.51768	1.46349	-0.10572	0.764734	-0.434008	0.97667	0.0986397	0.075046	-0.13891	0.253961	0.0768641	0	0	0.00401875	-0.111597	-0.272361	0.0610568	0.0318274	0	0	-0.0858786	0.163506	0.0102997	0.0934957	-0.328479	0.177578	1.72941	1.5708	0	0	-0.0311847	-0.278637	0.151636	1.62875	1.5708	0	0
24.07	1.53156	1.46365	-0.11826	0.766463	-0.433434	0.976907	0.0948353	0.076063	-0.139827	0.251337	0.0758226	0	0	0.00363034	-0.113494	-0.270953	0.0650666	0.0349092	0	0	-0.0877746	0.165545	0.0143424	0.0628872	-0.326751	0.164572	1.727	1.5708	0	0	-0.0483905	-0.275077	0.151469	1.62072	1.5708	0	0
24.08	1.53718	1.46398	-0.121887	0.76813	-0.432837	0.977145	0.0923733	0.0767778	-0.141468	0.249483	0.0749957	0	0	0.00500845	-0.115444	-0.269512	0.0705333	0.0392049	0	0	-0.0884382	0.16744	0.01813	0.031786	-0.323142	0.148858	1.72075	1.5708	0	0	-0.0649844	-0.271231	0.152326	1.61046	1.5708	0	0
24.09	1.53662	1.46508	-0.119195	0.769743	-0.432276	0.977311	0.0908915	0.0767739	-0.143294	0.247978	0.0746773	0	0	0.007897	-0.116768	-0.26832	0.0772912	0.044733	0	0	-0.0881701	0.168474	0.0215492	0.000436929	-0.318497	0.130726	1.71199	1.5708	0	0	-0.0811878	-0.267407	0.153579	1.59911	1.5708	0	0
24.1	1.52923	1.46703	-0.108769	0.771257	-0.431702	0.977376	0.0898291	0.0760095	-0.145616	0.245786	0.0748532	0	0	0.0124719	-0.117351	-0.266629	0.0853559	0.0514192	0	0	-0.0868984	0.168606	0.0237839	-0.0297037	-0.311903	0.111895	1.69835	1.5708	0	0	-0.0973663	-0.263356	0.154196	1.58648	1.5708	0	0
